<svg width="58" height="58" viewBox="0 0 58 58" fill="none" xmlns="http://www.w3.org/2000/svg">
<path d="M18.7321 0H1.93333C0.8642 0 0 0.8642 0 1.93333V17.4C0 18.4691 0.8642 19.3333 1.93333 19.3333C3.00247 19.3333 3.86667 18.4691 3.86667 17.4V3.86667H18.7321C19.8012 3.86667 20.6654 3.00247 20.6654 1.93333C20.6654 0.8642 19.8012 0 18.7321 0ZM18.7321 54.1333H3.86667V40.6C3.86667 39.5309 3.00247 38.6667 1.93333 38.6667C0.8642 38.6667 0 39.5309 0 40.6V56.0667C0 57.1358 0.8642 58 1.93333 58H18.7321C19.8012 58 20.6654 57.1358 20.6654 56.0667C20.6654 54.9975 19.8012 54.1333 18.7321 54.1333ZM56.0667 0H42.9993C41.9301 0 41.0659 0.8642 41.0659 1.93333C41.0659 3.00247 41.9301 3.86667 42.9993 3.86667H54.1333V17.4C54.1333 18.4691 54.9975 19.3333 56.0667 19.3333C57.1358 19.3333 58 18.4691 58 17.4V1.93333C58 0.8642 57.1358 0 56.0667 0ZM56.0667 38.6667C54.9975 38.6667 54.1333 39.5309 54.1333 40.6V54.1333H42.9993C41.9301 54.1333 41.0659 54.9975 41.0659 56.0667C41.0659 57.1358 41.9301 58 42.9993 58H56.0667C57.1358 58 58 57.1358 58 56.0667V40.6C58 39.5309 57.1358 38.6667 56.0667 38.6667Z" fill="white"/>
</svg>
