<svg width="14" height="10" viewBox="0 0 14 10" fill="none" xmlns="http://www.w3.org/2000/svg">
<g clip-path="url(#clip0_2042_165)">
<path d="M14 8.50087C14 8.91343 13.8361 9.30909 13.5444 9.60081C13.2527 9.89253 12.857 10.0564 12.4444 10.0564H1.55556C1.143 10.0564 0.747335 9.89253 0.455612 9.60081C0.163888 9.30909 0 8.91343 0 8.50087V6.94531H14V8.50087Z" fill="#CE2028"/>
<path d="M0 3.05469H14V6.94358H0V3.05469Z" fill="#22408C"/>
<path d="M12.4444 -0.0546875H1.55556C1.143 -0.0546875 0.747335 0.109201 0.455612 0.400924C0.163888 0.692647 0 1.08831 0 1.50087L0 3.05642H14V1.50087C14 1.08831 13.8361 0.692647 13.5444 0.400924C13.2527 0.109201 12.857 -0.0546875 12.4444 -0.0546875Z" fill="#EEEEEE"/>
</g>
<defs>
<clipPath id="clip0_2042_165">
<rect width="14" height="10" fill="white"/>
</clipPath>
</defs>
</svg>
